<svg width="122" height="32" viewBox="0 0 122 32" fill="none" xmlns="http://www.w3.org/2000/svg">
<path d="M0 30.9998V0.920898H19.9155V6.16414H6.35946V13.3314H18.5937V18.5746H6.35946V30.9998H0Z" fill="#E4E7EC"/>
<path d="M30.3323 0.920898V30.9998H24.0756V0.920898H30.3323Z" fill="#E4E7EC"/>
<path d="M45.5369 31.4404C43.2556 31.4404 41.2826 30.9557 39.6181 29.9864C37.9634 29.0073 36.6856 27.6463 35.7848 25.9034C34.884 24.1508 34.4336 22.1191 34.4336 19.8083C34.4336 17.478 34.884 15.4414 35.7848 13.6986C36.6856 11.9459 37.9634 10.5849 39.6181 9.61558C41.2826 8.63645 43.2556 8.14689 45.5369 8.14689C47.8183 8.14689 49.7864 8.63645 51.4411 9.61558C53.1056 10.5849 54.3883 11.9459 55.2891 13.6986C56.1899 15.4414 56.6403 17.478 56.6403 19.8083C56.6403 22.1191 56.1899 24.1508 55.2891 25.9034C54.3883 27.6463 53.1056 29.0073 51.4411 29.9864C49.7864 30.9557 47.8183 31.4404 45.5369 31.4404ZM45.5663 26.5937C46.6042 26.5937 47.4707 26.3 48.1659 25.7125C48.8611 25.1152 49.3849 24.3025 49.7374 23.2745C50.0997 22.2464 50.2808 21.0763 50.2808 19.7643C50.2808 18.4522 50.0997 17.2822 49.7374 16.2541C49.3849 15.226 48.8611 14.4133 48.1659 13.8161C47.4707 13.2188 46.6042 12.9201 45.5663 12.9201C44.5186 12.9201 43.6374 13.2188 42.9226 13.8161C42.2177 14.4133 41.684 15.226 41.3218 16.2541C40.9693 17.2822 40.793 18.4522 40.793 19.7643C40.793 21.0763 40.9693 22.2464 41.3218 23.2745C41.684 24.3025 42.2177 25.1152 42.9226 25.7125C43.6374 26.3 44.5186 26.5937 45.5663 26.5937Z" fill="#E4E7EC"/>
<path d="M81.0133 8.44062L73.1264 30.9998H66.0767L58.1898 8.44062H64.7989L69.484 24.5816H69.719L74.3895 8.44062H81.0133Z" fill="#E4E7EC"/>
<path d="M93.7689 31.4404C91.4484 31.4404 89.451 30.9704 87.7766 30.0305C86.1121 29.0807 84.8295 27.7393 83.9287 26.0062C83.0279 24.2634 82.5775 22.2023 82.5775 19.823C82.5775 17.5025 83.0279 15.4659 83.9287 13.7132C84.8295 11.9606 86.0974 10.5947 87.7326 9.61558C89.3775 8.63645 91.3064 8.14689 93.5192 8.14689C95.0075 8.14689 96.393 8.38677 97.6757 8.86655C98.9681 9.33653 100.094 10.0464 101.054 10.9962C102.023 11.9459 102.777 13.1405 103.315 14.5798C103.854 16.0093 104.123 17.6836 104.123 19.6027V21.3211H85.0742V17.4437H98.2338C98.2338 16.5429 98.0379 15.7449 97.6463 15.0498C97.2546 14.3546 96.7112 13.8112 96.016 13.4195C95.3306 13.0181 94.5326 12.8173 93.6221 12.8173C92.6723 12.8173 91.8302 13.0376 91.0959 13.4783C90.3713 13.9091 89.8034 14.4917 89.3922 15.226C88.981 15.9506 88.7705 16.7583 88.7607 17.6493V21.3358C88.7607 22.452 88.9663 23.4164 89.3775 24.2291C89.7985 25.0418 90.3909 25.6684 91.1546 26.109C91.9184 26.5497 92.8241 26.77 93.8717 26.77C94.5669 26.77 95.2033 26.672 95.781 26.4762C96.3587 26.2804 96.8532 25.9867 97.2644 25.595C97.6757 25.2033 97.989 24.7236 98.2044 24.1557L103.991 24.5375C103.697 25.9279 103.095 27.142 102.185 28.1799C101.284 29.208 100.119 30.0109 98.6891 30.5886C97.2693 31.1565 95.6293 31.4404 93.7689 31.4404Z" fill="#E4E7EC"/>
<path d="M108.206 30.9998V8.44062H114.272V12.3767H114.507C114.918 10.9766 115.608 9.91911 116.578 9.20435C117.547 8.47979 118.663 8.11751 119.926 8.11751C120.24 8.11751 120.578 8.13709 120.94 8.17626C121.302 8.21542 121.62 8.26928 121.894 8.33781V13.8895C121.601 13.8014 121.194 13.723 120.675 13.6545C120.156 13.586 119.682 13.5517 119.251 13.5517C118.33 13.5517 117.508 13.7524 116.783 14.1539C116.069 14.5455 115.501 15.0938 115.08 15.7988C114.668 16.5038 114.463 17.3164 114.463 18.2368V30.9998H108.206Z" fill="#E4E7EC"/>
</svg>
