<svg width="127" height="28" viewBox="0 0 127 28" fill="none" xmlns="http://www.w3.org/2000/svg">
<path d="M8.45798 22.2798C6.94598 22.2798 5.48065 22.0651 4.06198 21.6358C2.66198 21.2065 1.55131 20.6371 0.72998 19.9278L1.98998 17.0998C2.79265 17.7345 3.77265 18.2571 4.92998 18.6678C6.10598 19.0598 7.28198 19.2558 8.45798 19.2558C9.91398 19.2558 10.9966 19.0225 11.706 18.5558C12.434 18.0891 12.798 17.4731 12.798 16.7078C12.798 16.1478 12.5926 15.6905 12.182 15.3358C11.79 14.9625 11.286 14.6731 10.67 14.4678C10.054 14.2625 9.21398 14.0291 8.14998 13.7678C6.65665 13.4131 5.44331 13.0585 4.50998 12.7038C3.59531 12.3491 2.80198 11.7985 2.12998 11.0518C1.47665 10.2865 1.14998 9.25979 1.14998 7.97179C1.14998 6.88912 1.43931 5.90912 2.01798 5.03179C2.61531 4.13579 3.50198 3.42646 4.67798 2.90379C5.87265 2.38112 7.32864 2.11979 9.04598 2.11979C10.2406 2.11979 11.4166 2.26912 12.574 2.56779C13.7313 2.86646 14.73 3.29579 15.57 3.85579L14.422 6.68379C13.5633 6.17979 12.6673 5.79712 11.734 5.53579C10.8006 5.27446 9.89531 5.14379 9.01798 5.14379C7.58064 5.14379 6.50731 5.38646 5.79798 5.87179C5.10731 6.35712 4.76198 7.00112 4.76198 7.80379C4.76198 8.36379 4.95798 8.82112 5.34998 9.17579C5.76065 9.53046 6.27398 9.81046 6.88998 10.0158C7.50598 10.2211 8.34598 10.4545 9.40998 10.7158C10.866 11.0518 12.0606 11.4065 12.994 11.7798C13.9273 12.1345 14.7206 12.6851 15.374 13.4318C16.046 14.1785 16.382 15.1865 16.382 16.4558C16.382 17.5385 16.0833 18.5185 15.486 19.3958C14.9073 20.2731 14.0206 20.9731 12.826 21.4958C11.6313 22.0185 10.1753 22.2798 8.45798 22.2798Z" fill="#101828"/>
<path d="M19.6553 7.04779H23.1553V21.9998H19.6553V7.04779ZM21.4193 4.58379C20.7847 4.58379 20.2527 4.38779 19.8233 3.99579C19.394 3.58512 19.1793 3.08112 19.1793 2.48379C19.1793 1.88646 19.394 1.39179 19.8233 0.999788C20.2527 0.589122 20.7847 0.383789 21.4193 0.383789C22.054 0.383789 22.586 0.579789 23.0153 0.971788C23.4447 1.34512 23.6593 1.82112 23.6593 2.39979C23.6593 3.01579 23.4447 3.53846 23.0153 3.96779C22.6047 4.37846 22.0727 4.58379 21.4193 4.58379Z" fill="#101828"/>
<path d="M32.3691 22.1958C31.1558 22.1958 29.9704 22.0371 28.8131 21.7198C27.6558 21.4025 26.7318 21.0011 26.0411 20.5158L27.3851 17.8558C28.0571 18.3038 28.8598 18.6678 29.7931 18.9478C30.7451 19.2091 31.6784 19.3398 32.5931 19.3398C34.6838 19.3398 35.7291 18.7891 35.7291 17.6878C35.7291 17.1651 35.4584 16.8011 34.9171 16.5958C34.3944 16.3905 33.5451 16.1945 32.3691 16.0078C31.1371 15.8211 30.1291 15.6065 29.3451 15.3638C28.5798 15.1211 27.9078 14.7011 27.3291 14.1038C26.7691 13.4878 26.4891 12.6385 26.4891 11.5558C26.4891 10.1371 27.0771 9.00779 28.2531 8.16779C29.4478 7.30912 31.0531 6.87979 33.0691 6.87979C34.0958 6.87979 35.1224 7.00112 36.1491 7.24379C37.1758 7.46779 38.0158 7.77579 38.6691 8.16779L37.3251 10.8278C36.0558 10.0811 34.6278 9.70779 33.0411 9.70779C32.0144 9.70779 31.2304 9.86646 30.6891 10.1838C30.1664 10.4825 29.9051 10.8838 29.9051 11.3878C29.9051 11.9478 30.1851 12.3491 30.7451 12.5918C31.3238 12.8158 32.2104 13.0305 33.4051 13.2358C34.5998 13.4225 35.5798 13.6371 36.3451 13.8798C37.1104 14.1225 37.7638 14.5331 38.3051 15.1118C38.8651 15.6905 39.1451 16.5118 39.1451 17.5758C39.1451 18.9758 38.5384 20.0958 37.3251 20.9358C36.1118 21.7758 34.4598 22.1958 32.3691 22.1958Z" fill="#101828"/>
<path d="M55.8858 7.04779L48.8858 23.2038C48.2325 24.8278 47.4391 25.9665 46.5058 26.6198C45.5725 27.2918 44.4431 27.6278 43.1178 27.6278C42.3711 27.6278 41.6338 27.5065 40.9058 27.2638C40.1778 27.0211 39.5805 26.6851 39.1138 26.2558L40.5138 23.6798C40.8498 23.9971 41.2418 24.2491 41.6898 24.4358C42.1565 24.6225 42.6231 24.7158 43.0898 24.7158C43.7058 24.7158 44.2098 24.5571 44.6018 24.2398C45.0125 23.9225 45.3858 23.3905 45.7218 22.6438L45.9738 22.0558L39.4498 7.04779H43.0898L47.7938 18.1078L52.5258 7.04779H55.8858Z" fill="#101828"/>
<path d="M66.3613 6.87979C67.8173 6.87979 69.1146 7.19712 70.2533 7.83179C71.4106 8.46646 72.316 9.36246 72.9693 10.5198C73.6226 11.6771 73.9493 13.0118 73.9493 14.5238C73.9493 16.0358 73.6226 17.3798 72.9693 18.5558C72.316 19.7131 71.4106 20.6091 70.2533 21.2438C69.1146 21.8785 67.8173 22.1958 66.3613 22.1958C64.3453 22.1958 62.7493 21.5238 61.5733 20.1798V27.4318H58.0733V7.04779H61.4053V9.00779C61.984 8.29846 62.6933 7.76646 63.5333 7.41179C64.392 7.05712 65.3346 6.87979 66.3613 6.87979ZM65.9693 19.1998C67.2573 19.1998 68.312 18.7705 69.1333 17.9118C69.9733 17.0531 70.3933 15.9238 70.3933 14.5238C70.3933 13.1238 69.9733 11.9945 69.1333 11.1358C68.312 10.2771 67.2573 9.84779 65.9693 9.84779C65.1293 9.84779 64.3733 10.0438 63.7013 10.4358C63.0293 10.8091 62.4973 11.3505 62.1053 12.0598C61.7133 12.7691 61.5173 13.5905 61.5173 14.5238C61.5173 15.4571 61.7133 16.2785 62.1053 16.9878C62.4973 17.6971 63.0293 18.2478 63.7013 18.6398C64.3733 19.0131 65.1293 19.1998 65.9693 19.1998Z" fill="#101828"/>
<path d="M85.7526 6.87979C87.6379 6.87979 89.1499 7.43046 90.2886 8.53179C91.4273 9.63312 91.9966 11.2665 91.9966 13.4318V21.9998H88.4966V13.8798C88.4966 12.5731 88.1886 11.5931 87.5726 10.9398C86.9566 10.2678 86.0793 9.93179 84.9406 9.93179C83.6526 9.93179 82.6353 10.3238 81.8886 11.1078C81.1419 11.8731 80.7686 12.9838 80.7686 14.4398V21.9998H77.2686V1.22379H80.7686V8.78379C81.3473 8.16779 82.0566 7.70112 82.8966 7.38379C83.7553 7.04779 84.7073 6.87979 85.7526 6.87979Z" fill="#101828"/>
<path d="M110.913 7.04779V21.9998H107.581V20.0958C107.021 20.7678 106.321 21.2905 105.481 21.6638C104.641 22.0185 103.735 22.1958 102.765 22.1958C100.767 22.1958 99.1899 21.6451 98.0326 20.5438C96.8939 19.4238 96.3246 17.7718 96.3246 15.5878V7.04779H99.8246V15.1118C99.8246 16.4558 100.123 17.4638 100.721 18.1358C101.337 18.7891 102.205 19.1158 103.325 19.1158C104.575 19.1158 105.565 18.7331 106.293 17.9678C107.039 17.1838 107.413 16.0638 107.413 14.6078V7.04779H110.913Z" fill="#101828"/>
<path d="M120.115 22.1958C118.902 22.1958 117.716 22.0371 116.559 21.7198C115.402 21.4025 114.478 21.0011 113.787 20.5158L115.131 17.8558C115.803 18.3038 116.606 18.6678 117.539 18.9478C118.491 19.2091 119.424 19.3398 120.339 19.3398C122.43 19.3398 123.475 18.7891 123.475 17.6878C123.475 17.1651 123.204 16.8011 122.663 16.5958C122.14 16.3905 121.291 16.1945 120.115 16.0078C118.883 15.8211 117.875 15.6065 117.091 15.3638C116.326 15.1211 115.654 14.7011 115.075 14.1038C114.515 13.4878 114.235 12.6385 114.235 11.5558C114.235 10.1371 114.823 9.00779 115.999 8.16779C117.194 7.30912 118.799 6.87979 120.815 6.87979C121.842 6.87979 122.868 7.00112 123.895 7.24379C124.922 7.46779 125.762 7.77579 126.415 8.16779L125.071 10.8278C123.802 10.0811 122.374 9.70779 120.787 9.70779C119.76 9.70779 118.976 9.86646 118.435 10.1838C117.912 10.4825 117.651 10.8838 117.651 11.3878C117.651 11.9478 117.931 12.3491 118.491 12.5918C119.07 12.8158 119.956 13.0305 121.151 13.2358C122.346 13.4225 123.326 13.6371 124.091 13.8798C124.856 14.1225 125.51 14.5331 126.051 15.1118C126.611 15.6905 126.891 16.5118 126.891 17.5758C126.891 18.9758 126.284 20.0958 125.071 20.9358C123.858 21.7758 122.206 22.1958 120.115 22.1958Z" fill="#101828"/>
</svg>
