<svg width="142" height="29" viewBox="0 0 142 29" fill="none" xmlns="http://www.w3.org/2000/svg">
<path d="M17.1441 1.45578V20.9998H13.2241V12.6838H4.85213V20.9998H0.932129V1.45578H4.85213V9.49179H13.2241V1.45578H17.1441Z" fill="#101828"/>
<path d="M27.8904 21.2518C26.3971 21.2518 25.0531 20.9251 23.8584 20.2718C22.6638 19.5998 21.7211 18.6571 21.0304 17.4438C20.3584 16.2305 20.0224 14.8305 20.0224 13.2438C20.0224 11.6571 20.3678 10.2571 21.0584 9.04379C21.7678 7.83045 22.7291 6.89712 23.9424 6.24378C25.1558 5.57178 26.5091 5.23578 28.0024 5.23578C29.4958 5.23578 30.8491 5.57178 32.0624 6.24378C33.2758 6.89712 34.2278 7.83045 34.9184 9.04379C35.6278 10.2571 35.9824 11.6571 35.9824 13.2438C35.9824 14.8305 35.6184 16.2305 34.8904 17.4438C34.1811 18.6571 33.2104 19.5998 31.9784 20.2718C30.7651 20.9251 29.4024 21.2518 27.8904 21.2518ZM27.8904 17.8358C28.5998 17.8358 29.2624 17.6678 29.8784 17.3318C30.5131 16.9771 31.0171 16.4545 31.3904 15.7638C31.7638 15.0731 31.9504 14.2331 31.9504 13.2438C31.9504 11.7691 31.5584 10.6398 30.7744 9.85578C30.0091 9.05312 29.0664 8.65178 27.9464 8.65178C26.8264 8.65178 25.8838 9.05312 25.1184 9.85578C24.3718 10.6398 23.9984 11.7691 23.9984 13.2438C23.9984 14.7185 24.3624 15.8571 25.0904 16.6598C25.8371 17.4438 26.7704 17.8358 27.8904 17.8358Z" fill="#101828"/>
<path d="M53.5019 5.48778V20.9998H49.5539V19.0398C49.0499 19.7118 48.3872 20.2438 47.5659 20.6358C46.7632 21.0091 45.8859 21.1958 44.9339 21.1958C43.7205 21.1958 42.6472 20.9438 41.7139 20.4398C40.7806 19.9171 40.0432 19.1611 39.5019 18.1718C38.9792 17.1638 38.7179 15.9691 38.7179 14.5878V5.48778H42.6379V14.0278C42.6379 15.2598 42.9459 16.2118 43.5619 16.8838C44.1779 17.5371 45.0179 17.8638 46.0819 17.8638C47.1645 17.8638 48.0139 17.5371 48.6299 16.8838C49.2459 16.2118 49.5539 15.2598 49.5539 14.0278V5.48778H53.5019Z" fill="#101828"/>
<path d="M61.2896 7.89578C61.7936 7.07445 62.4469 6.43045 63.2496 5.96379C64.0709 5.49712 65.0043 5.26378 66.0496 5.26378V9.37978H65.0136C63.7816 9.37978 62.8483 9.66912 62.2136 10.2478C61.5976 10.8265 61.2896 11.8345 61.2896 13.2718V20.9998H57.3696V5.48778H61.2896V7.89578Z" fill="#101828"/>
<path d="M74.7659 5.23578C75.9232 5.23578 76.9406 5.46912 77.8179 5.93578C78.6952 6.38379 79.3859 6.97178 79.8899 7.69978V5.48778H83.8379V21.1118C83.8379 22.5491 83.5486 23.8278 82.9699 24.9478C82.3912 26.0865 81.5232 26.9825 80.3659 27.6358C79.2086 28.3078 77.8086 28.6438 76.1659 28.6438C73.9632 28.6438 72.1526 28.1305 70.7339 27.1038C69.3339 26.0771 68.5406 24.6771 68.3539 22.9038H72.2459C72.4512 23.6131 72.8899 24.1731 73.5619 24.5838C74.2526 25.0131 75.0832 25.2278 76.0539 25.2278C77.1926 25.2278 78.1166 24.8825 78.8259 24.1918C79.5352 23.5198 79.8899 22.4931 79.8899 21.1118V18.7038C79.3859 19.4318 78.6859 20.0385 77.7899 20.5238C76.9126 21.0091 75.9046 21.2518 74.7659 21.2518C73.4592 21.2518 72.2646 20.9158 71.1819 20.2438C70.0992 19.5718 69.2406 18.6291 68.6059 17.4158C67.9899 16.1838 67.6819 14.7745 67.6819 13.1878C67.6819 11.6198 67.9899 10.2291 68.6059 9.01578C69.2406 7.80245 70.0899 6.86912 71.1539 6.21579C72.2366 5.56245 73.4406 5.23578 74.7659 5.23578ZM79.8899 13.2438C79.8899 12.2918 79.7032 11.4798 79.3299 10.8078C78.9566 10.1171 78.4526 9.59445 77.8179 9.23979C77.1832 8.86645 76.5019 8.67978 75.7739 8.67978C75.0459 8.67978 74.3739 8.85712 73.7579 9.21178C73.1419 9.56645 72.6379 10.0891 72.2459 10.7798C71.8726 11.4518 71.6859 12.2545 71.6859 13.1878C71.6859 14.1211 71.8726 14.9425 72.2459 15.6518C72.6379 16.3425 73.1419 16.8745 73.7579 17.2478C74.3926 17.6211 75.0646 17.8078 75.7739 17.8078C76.5019 17.8078 77.1832 17.6305 77.8179 17.2758C78.4526 16.9024 78.9566 16.3798 79.3299 15.7078C79.7032 15.0171 79.8899 14.1958 79.8899 13.2438Z" fill="#101828"/>
<path d="M91.5864 0.279785V20.9998H87.6664V0.279785H91.5864Z" fill="#101828"/>
<path d="M94.4514 13.1878C94.4514 11.6198 94.7594 10.2291 95.3754 9.01578C96.0101 7.80245 96.8594 6.86912 97.9234 6.21579C99.0061 5.56245 100.21 5.23578 101.535 5.23578C102.693 5.23578 103.701 5.46912 104.559 5.93578C105.437 6.40245 106.137 6.99045 106.659 7.69978V5.48778H110.607V20.9998H106.659V18.7318C106.155 19.4598 105.455 20.0665 104.559 20.5518C103.682 21.0185 102.665 21.2518 101.507 21.2518C100.201 21.2518 99.0061 20.9158 97.9234 20.2438C96.8594 19.5718 96.0101 18.6291 95.3754 17.4158C94.7594 16.1838 94.4514 14.7745 94.4514 13.1878ZM106.659 13.2438C106.659 12.2918 106.473 11.4798 106.099 10.8078C105.726 10.1171 105.222 9.59445 104.587 9.23979C103.953 8.86645 103.271 8.67978 102.543 8.67978C101.815 8.67978 101.143 8.85712 100.527 9.21178C99.9114 9.56645 99.4074 10.0891 99.0154 10.7798C98.6421 11.4518 98.4554 12.2545 98.4554 13.1878C98.4554 14.1211 98.6421 14.9425 99.0154 15.6518C99.4074 16.3425 99.9114 16.8745 100.527 17.2478C101.162 17.6211 101.834 17.8078 102.543 17.8078C103.271 17.8078 103.953 17.6305 104.587 17.2758C105.222 16.9024 105.726 16.3798 106.099 15.7078C106.473 15.0171 106.659 14.1958 106.659 13.2438Z" fill="#101828"/>
<path d="M120.372 21.2518C119.103 21.2518 117.964 21.0278 116.956 20.5798C115.948 20.1131 115.145 19.4878 114.548 18.7038C113.969 17.9198 113.652 17.0518 113.596 16.0998H117.544C117.619 16.6971 117.908 17.1918 118.412 17.5838C118.935 17.9758 119.579 18.1718 120.344 18.1718C121.091 18.1718 121.669 18.0225 122.08 17.7238C122.509 17.4251 122.724 17.0425 122.724 16.5758C122.724 16.0718 122.463 15.6985 121.94 15.4558C121.436 15.1945 120.624 14.9145 119.504 14.6158C118.347 14.3358 117.395 14.0465 116.648 13.7478C115.92 13.4491 115.285 12.9918 114.744 12.3758C114.221 11.7598 113.96 10.9291 113.96 9.88379C113.96 9.02512 114.203 8.24112 114.688 7.53178C115.192 6.82245 115.901 6.26245 116.816 5.85178C117.749 5.44112 118.841 5.23578 120.092 5.23578C121.94 5.23578 123.415 5.70245 124.516 6.63579C125.617 7.55045 126.224 8.79179 126.336 10.3598H122.584C122.528 9.74379 122.267 9.25845 121.8 8.90378C121.352 8.53045 120.745 8.34379 119.98 8.34379C119.271 8.34379 118.72 8.47445 118.328 8.73578C117.955 8.99712 117.768 9.36112 117.768 9.82778C117.768 10.3505 118.029 10.7518 118.552 11.0318C119.075 11.2931 119.887 11.5638 120.988 11.8438C122.108 12.1238 123.032 12.4131 123.76 12.7118C124.488 13.0105 125.113 13.4771 125.636 14.1118C126.177 14.7278 126.457 15.5491 126.476 16.5758C126.476 17.4718 126.224 18.2745 125.72 18.9838C125.235 19.6931 124.525 20.2531 123.592 20.6638C122.677 21.0558 121.604 21.2518 120.372 21.2518Z" fill="#101828"/>
<path d="M135.63 21.2518C134.36 21.2518 133.222 21.0278 132.214 20.5798C131.206 20.1131 130.403 19.4878 129.806 18.7038C129.227 17.9198 128.91 17.0518 128.854 16.0998H132.802C132.876 16.6971 133.166 17.1918 133.67 17.5838C134.192 17.9758 134.836 18.1718 135.602 18.1718C136.348 18.1718 136.927 18.0225 137.338 17.7238C137.767 17.4251 137.982 17.0425 137.982 16.5758C137.982 16.0718 137.72 15.6985 137.198 15.4558C136.694 15.1945 135.882 14.9145 134.762 14.6158C133.604 14.3358 132.652 14.0465 131.906 13.7478C131.178 13.4491 130.543 12.9918 130.002 12.3758C129.479 11.7598 129.218 10.9291 129.218 9.88379C129.218 9.02512 129.46 8.24112 129.946 7.53178C130.45 6.82245 131.159 6.26245 132.074 5.85178C133.007 5.44112 134.099 5.23578 135.35 5.23578C137.198 5.23578 138.672 5.70245 139.774 6.63579C140.875 7.55045 141.482 8.79179 141.594 10.3598H137.842C137.786 9.74379 137.524 9.25845 137.058 8.90378C136.61 8.53045 136.003 8.34379 135.238 8.34379C134.528 8.34379 133.978 8.47445 133.586 8.73578C133.212 8.99712 133.026 9.36112 133.026 9.82778C133.026 10.3505 133.287 10.7518 133.81 11.0318C134.332 11.2931 135.144 11.5638 136.246 11.8438C137.366 12.1238 138.29 12.4131 139.018 12.7118C139.746 13.0105 140.371 13.4771 140.894 14.1118C141.435 14.7278 141.715 15.5491 141.734 16.5758C141.734 17.4718 141.482 18.2745 140.978 18.9838C140.492 19.6931 139.783 20.2531 138.85 20.6638C137.935 21.0558 136.862 21.2518 135.63 21.2518Z" fill="#101828"/>
</svg>
