<svg width="123" height="32" viewBox="0 0 123 32" fill="none" xmlns="http://www.w3.org/2000/svg">
<path d="M0.614258 30.9998V0.920898H20.5298V6.16414H6.97371V13.3314H19.208V18.5746H6.97371V30.9998H0.614258Z" fill="black"/>
<path d="M30.9465 0.920898V30.9998H24.6899V0.920898H30.9465Z" fill="black"/>
<path d="M46.1512 31.4404C43.8698 31.4404 41.8969 30.9557 40.2323 29.9864C38.5776 29.0073 37.2998 27.6463 36.399 25.9034C35.4982 24.1508 35.0478 22.1191 35.0478 19.8083C35.0478 17.478 35.4982 15.4414 36.399 13.6986C37.2998 11.9459 38.5776 10.5849 40.2323 9.61558C41.8969 8.63645 43.8698 8.14689 46.1512 8.14689C48.4326 8.14689 50.4006 8.63645 52.0553 9.61558C53.7199 10.5849 55.0025 11.9459 55.9033 13.6986C56.8041 15.4414 57.2545 17.478 57.2545 19.8083C57.2545 22.1191 56.8041 24.1508 55.9033 25.9034C55.0025 27.6463 53.7199 29.0073 52.0553 29.9864C50.4006 30.9557 48.4326 31.4404 46.1512 31.4404ZM46.1806 26.5937C47.2184 26.5937 48.085 26.3 48.7802 25.7125C49.4753 25.1152 49.9992 24.3025 50.3517 23.2745C50.7139 22.2464 50.8951 21.0763 50.8951 19.7643C50.8951 18.4522 50.7139 17.2822 50.3517 16.2541C49.9992 15.226 49.4753 14.4133 48.7802 13.8161C48.085 13.2188 47.2184 12.9201 46.1806 12.9201C45.1329 12.9201 44.2517 13.2188 43.5369 13.8161C42.8319 14.4133 42.2983 15.226 41.936 16.2541C41.5835 17.2822 41.4073 18.4522 41.4073 19.7643C41.4073 21.0763 41.5835 22.2464 41.936 23.2745C42.2983 24.3025 42.8319 25.1152 43.5369 25.7125C44.2517 26.3 45.1329 26.5937 46.1806 26.5937Z" fill="black"/>
<path d="M81.6275 8.44062L73.7406 30.9998H66.6909L58.804 8.44062H65.4131L70.0983 24.5816H70.3333L75.0037 8.44062H81.6275Z" fill="black"/>
<path d="M94.3832 31.4404C92.0626 31.4404 90.0652 30.9704 88.3909 30.0305C86.7264 29.0807 85.4437 27.7393 84.5429 26.0062C83.6421 24.2634 83.1917 22.2023 83.1917 19.823C83.1917 17.5025 83.6421 15.4659 84.5429 13.7132C85.4437 11.9606 86.7117 10.5947 88.3468 9.61558C89.9918 8.63645 91.9207 8.14689 94.1335 8.14689C95.6218 8.14689 97.0072 8.38677 98.2899 8.86655C99.5824 9.33653 100.708 10.0464 101.668 10.9962C102.637 11.9459 103.391 13.1405 103.93 14.5798C104.468 16.0093 104.737 17.6836 104.737 19.6027V21.3211H85.6885V17.4437H98.848C98.848 16.5429 98.6522 15.7449 98.2605 15.0498C97.8689 14.3546 97.3255 13.8112 96.6303 13.4195C95.9449 13.0181 95.1469 12.8173 94.2363 12.8173C93.2866 12.8173 92.4445 13.0376 91.7102 13.4783C90.9856 13.9091 90.4177 14.4917 90.0065 15.226C89.5952 15.9506 89.3847 16.7583 89.3749 17.6493V21.3358C89.3749 22.452 89.5805 23.4164 89.9918 24.2291C90.4128 25.0418 91.0052 25.6684 91.7689 26.109C92.5326 26.5497 93.4383 26.77 94.486 26.77C95.1812 26.77 95.8176 26.672 96.3953 26.4762C96.973 26.2804 97.4674 25.9867 97.8787 25.595C98.2899 25.2033 98.6032 24.7236 98.8186 24.1557L104.605 24.5375C104.312 25.9279 103.709 27.142 102.799 28.1799C101.898 29.208 100.733 30.0109 99.3033 30.5886C97.8836 31.1565 96.2435 31.4404 94.3832 31.4404Z" fill="black"/>
<path d="M108.82 30.9998V8.44062H114.886V12.3767H115.121C115.532 10.9766 116.223 9.91911 117.192 9.20435C118.161 8.47979 119.278 8.11751 120.541 8.11751C120.854 8.11751 121.192 8.13709 121.554 8.17626C121.916 8.21542 122.235 8.26928 122.509 8.33781V13.8895C122.215 13.8014 121.809 13.723 121.29 13.6545C120.771 13.586 120.296 13.5517 119.865 13.5517C118.945 13.5517 118.122 13.7524 117.398 14.1539C116.683 14.5455 116.115 15.0938 115.694 15.7988C115.283 16.5038 115.077 17.3164 115.077 18.2368V30.9998H108.82Z" fill="black"/>
</svg>
