<svg width="127" height="22" viewBox="0 0 127 22" fill="none" xmlns="http://www.w3.org/2000/svg">
<path d="M17.7281 15.9042C17.1681 17.7148 16.1881 19.0682 14.7881 19.9642C13.3881 20.8415 11.7548 21.2802 9.88813 21.2802C8.0588 21.2802 6.47213 20.8975 5.12813 20.1322C3.8028 19.3668 2.77613 18.2748 2.04813 16.8562C1.3388 15.4375 0.984131 13.7388 0.984131 11.7602C0.984131 9.7815 1.34813 8.08283 2.07613 6.66416C2.80413 5.2455 3.8308 4.1535 5.15613 3.38816C6.48146 2.62283 8.04013 2.24016 9.83213 2.24016C11.7175 2.24016 13.3321 2.6415 14.6761 3.44416C16.0388 4.22816 16.9721 5.42283 17.4761 7.02816L13.9761 8.51217C13.6588 7.39216 13.1735 6.59883 12.5201 6.13216C11.8668 5.64683 11.0268 5.40416 10.0001 5.40416C8.46946 5.40416 7.2468 5.95483 6.33213 7.05616C5.43613 8.13883 4.98813 9.70683 4.98813 11.7602C4.98813 13.7948 5.41746 15.3628 6.27613 16.4642C7.1348 17.5655 8.37613 18.1162 10.0001 18.1162C11.0081 18.1162 11.8761 17.8455 12.6041 17.3042C13.3508 16.7628 13.8735 15.9415 14.1721 14.8402L17.7281 15.9042Z" fill="#101828"/>
<path d="M22.5614 4.98416C20.9747 4.98416 20.1814 4.30283 20.1814 2.94016C20.1814 1.55883 20.9747 0.868164 22.5614 0.868164C24.1481 0.868164 24.9414 1.55883 24.9414 2.94016C24.9414 4.30283 24.1481 4.98416 22.5614 4.98416ZM24.4654 7.00016V21.0002H20.6294V7.00016H24.4654Z" fill="#101828"/>
<path d="M28.5318 21.0002V7.00016H31.8637L32.1157 9.74416C32.4704 8.79216 33.0024 8.05483 33.7117 7.53216C34.4397 6.99083 35.3544 6.72016 36.4557 6.72016C37.1091 6.72016 37.6131 6.82283 37.9677 7.02816L37.5197 10.2482C37.3331 10.1922 37.0997 10.1455 36.8197 10.1082C36.5584 10.0522 36.2131 10.0242 35.7837 10.0242C35.2051 10.0242 34.6544 10.1642 34.1317 10.4442C33.6277 10.7055 33.2077 11.1162 32.8717 11.6762C32.5357 12.2175 32.3678 12.9082 32.3678 13.7482V21.0002H28.5318Z" fill="#101828"/>
<path d="M46.4268 6.72016C48.2935 6.72016 49.7401 7.1215 50.7668 7.92416C51.8121 8.72683 52.5028 9.6975 52.8388 10.8362L49.2548 12.1242C48.8815 10.4255 47.9575 9.57616 46.4828 9.57616C45.4188 9.57616 44.5881 9.9495 43.9908 10.6962C43.4121 11.4428 43.1228 12.5535 43.1228 14.0282C43.1228 15.5215 43.4215 16.6322 44.0188 17.3602C44.6348 18.0695 45.4655 18.4242 46.5108 18.4242C48.1348 18.4242 49.1055 17.5935 49.4228 15.9322L52.8948 17.0522C52.5775 18.3028 51.8681 19.3202 50.7668 20.1042C49.6841 20.8882 48.2748 21.2802 46.5388 21.2802C45.0828 21.2802 43.8041 20.9908 42.7028 20.4122C41.6201 19.8335 40.7801 19.0028 40.1828 17.9202C39.5855 16.8375 39.2868 15.5308 39.2868 14.0002C39.2868 12.4695 39.5855 11.1628 40.1828 10.0802C40.7988 8.9975 41.6388 8.16683 42.7028 7.58816C43.7855 7.0095 45.0268 6.72016 46.4268 6.72016Z" fill="#101828"/>
<path d="M62.2595 6.72016C63.6595 6.72016 64.9008 7.0095 65.9835 7.58816C67.0662 8.16683 67.9062 8.9975 68.5035 10.0802C69.1195 11.1628 69.4275 12.4695 69.4275 14.0002C69.4275 15.5308 69.1195 16.8375 68.5035 17.9202C67.9062 19.0028 67.0662 19.8335 65.9835 20.4122C64.9008 20.9908 63.6595 21.2802 62.2595 21.2802C60.8408 21.2802 59.5902 20.9908 58.5075 20.4122C57.4435 19.8335 56.6035 19.0028 55.9875 17.9202C55.3902 16.8375 55.0915 15.5308 55.0915 14.0002C55.0915 12.4695 55.3902 11.1628 55.9875 10.0802C56.6035 8.9975 57.4435 8.16683 58.5075 7.58816C59.5902 7.0095 60.8408 6.72016 62.2595 6.72016ZM62.2595 9.57616C61.2142 9.57616 60.3928 9.9495 59.7955 10.6962C59.2168 11.4242 58.9275 12.5255 58.9275 14.0002C58.9275 15.4748 59.2168 16.5855 59.7955 17.3322C60.3928 18.0602 61.2142 18.4242 62.2595 18.4242C63.2862 18.4242 64.0888 18.0602 64.6675 17.3322C65.2648 16.5855 65.5635 15.4748 65.5635 14.0002C65.5635 12.5255 65.2648 11.4242 64.6675 10.6962C64.0888 9.9495 63.2862 9.57616 62.2595 9.57616Z" fill="#101828"/>
<path d="M79.0212 6.72016C80.4212 6.72016 81.6625 7.0095 82.7452 7.58816C83.8279 8.16683 84.6679 8.9975 85.2652 10.0802C85.8812 11.1628 86.1892 12.4695 86.1892 14.0002C86.1892 15.5308 85.8812 16.8375 85.2652 17.9202C84.6679 19.0028 83.8279 19.8335 82.7452 20.4122C81.6625 20.9908 80.4212 21.2802 79.0212 21.2802C77.6025 21.2802 76.3519 20.9908 75.2692 20.4122C74.2052 19.8335 73.3652 19.0028 72.7492 17.9202C72.1519 16.8375 71.8532 15.5308 71.8532 14.0002C71.8532 12.4695 72.1519 11.1628 72.7492 10.0802C73.3652 8.9975 74.2052 8.16683 75.2692 7.58816C76.3519 7.0095 77.6025 6.72016 79.0212 6.72016ZM79.0212 9.57616C77.9759 9.57616 77.1545 9.9495 76.5572 10.6962C75.9785 11.4242 75.6892 12.5255 75.6892 14.0002C75.6892 15.4748 75.9785 16.5855 76.5572 17.3322C77.1545 18.0602 77.9759 18.4242 79.0212 18.4242C80.0479 18.4242 80.8505 18.0602 81.4292 17.3322C82.0265 16.5855 82.3252 15.4748 82.3252 14.0002C82.3252 12.5255 82.0265 11.4242 81.4292 10.6962C80.8505 9.9495 80.0479 9.57616 79.0212 9.57616Z" fill="#101828"/>
<path d="M93.1789 0.868164V16.6882C93.1789 17.3415 93.2909 17.7988 93.5149 18.0602C93.7389 18.3215 94.1123 18.4522 94.6349 18.4522C94.9523 18.4522 95.2136 18.4335 95.4189 18.3962C95.6243 18.3588 95.8856 18.2842 96.2029 18.1722L95.8669 20.6922C95.5496 20.8788 95.1483 21.0188 94.6629 21.1122C94.1963 21.2242 93.7296 21.2802 93.2629 21.2802C91.9003 21.2802 90.9016 20.9535 90.2669 20.3002C89.6509 19.6282 89.3429 18.5642 89.3429 17.1082V0.868164H93.1789Z" fill="#101828"/>
<path d="M104.836 21.2802C102.634 21.2802 100.87 20.6455 99.5443 19.3762C98.219 18.0882 97.5563 16.2962 97.5563 14.0002C97.5563 12.4695 97.855 11.1628 98.4523 10.0802C99.0497 8.9975 99.8803 8.16683 100.944 7.58816C102.027 7.0095 103.259 6.72016 104.64 6.72016C106.059 6.72016 107.263 7.0095 108.252 7.58816C109.242 8.14816 109.998 8.92283 110.52 9.91216C111.043 10.8828 111.304 11.9935 111.304 13.2442C111.304 13.6175 111.295 13.9722 111.276 14.3082C111.258 14.6442 111.23 14.9428 111.192 15.2042H101.308C101.458 16.2868 101.831 17.0988 102.428 17.6402C103.044 18.1628 103.838 18.4242 104.808 18.4242C105.63 18.4242 106.292 18.2655 106.796 17.9482C107.3 17.6308 107.692 17.1922 107.972 16.6322L111.024 17.8082C110.576 18.9095 109.792 19.7682 108.672 20.3842C107.552 20.9815 106.274 21.2802 104.836 21.2802ZM104.612 9.54816C102.802 9.54816 101.71 10.5468 101.336 12.5442H107.636C107.524 11.5735 107.207 10.8362 106.684 10.3322C106.18 9.8095 105.49 9.54816 104.612 9.54816Z" fill="#101828"/>
<path d="M120.155 21.2802C118.736 21.2802 117.439 21.0282 116.263 20.5242C115.106 20.0202 114.163 19.3108 113.435 18.3962L115.647 16.1562C116.095 16.8282 116.692 17.3788 117.439 17.8082C118.186 18.2375 119.072 18.4522 120.099 18.4522C120.827 18.4522 121.406 18.3495 121.835 18.1442C122.283 17.9202 122.507 17.5748 122.507 17.1082C122.507 16.8095 122.404 16.5575 122.199 16.3522C121.994 16.1282 121.583 15.9508 120.967 15.8202L118.503 15.3162C116.879 14.9802 115.722 14.4762 115.031 13.8042C114.359 13.1135 114.023 12.2268 114.023 11.1442C114.023 10.3788 114.247 9.66016 114.695 8.98816C115.162 8.31616 115.852 7.77483 116.767 7.36416C117.682 6.93483 118.82 6.72016 120.183 6.72016C123.02 6.72016 125.055 7.58816 126.287 9.32416L123.991 11.5642C123.581 10.9108 123.039 10.4162 122.367 10.0802C121.714 9.7255 121.023 9.54816 120.295 9.54816C118.652 9.54816 117.831 10.0055 117.831 10.9202C117.831 11.2188 117.962 11.4802 118.223 11.7042C118.484 11.9095 118.96 12.0868 119.651 12.2362L122.507 12.8242C123.888 13.1042 124.878 13.5802 125.475 14.2522C126.072 14.9055 126.371 15.6988 126.371 16.6322C126.371 17.9762 125.83 19.0868 124.747 19.9642C123.683 20.8415 122.152 21.2802 120.155 21.2802Z" fill="#101828"/>
</svg>
