<svg width="311" height="64" viewBox="0 0 311 64" fill="none" xmlns="http://www.w3.org/2000/svg">
<g filter="url(#filter0_d_7637_403433)">
<path d="M4 23.9111C4 16.9416 4 13.4568 5.35636 10.7948C6.54945 8.45321 8.45321 6.54945 10.7948 5.35636C13.4568 4 16.9416 4 23.9111 4H40.0889C47.0584 4 50.5432 4 53.2052 5.35636C55.5468 6.54945 57.4505 8.45321 58.6436 10.7948C60 13.4568 60 16.9416 60 23.9111V40.0889C60 47.0584 60 50.5432 58.6436 53.2052C57.4505 55.5468 55.5468 57.4505 53.2052 58.6436C50.5432 60 47.0584 60 40.0889 60H23.9111C16.9416 60 13.4568 60 10.7948 58.6436C8.45321 57.4505 6.54945 55.5468 5.35636 53.2052C4 50.5432 4 47.0584 4 40.0889V23.9111Z" fill="white"/>
<path d="M48.986 12H42.4834V21.4225H51.9983V14.6569C52.0009 14.6569 51.5282 12.257 48.986 12Z" fill="#1967D2"/>
<path d="M42.4846 51.9562V51.9793V51.9999L51.9996 42.5774H51.9143L42.4846 51.9562Z" fill="#1967D2"/>
<path d="M51.9988 42.5772V42.4927L51.9143 42.5772H51.9988Z" fill="#FBBC05"/>
<path d="M51.9996 21.4226H42.4846V42.4928H51.9996V21.4226Z" fill="#FBBC05"/>
<path d="M51.9143 42.5774H42.4846V51.9562L51.9143 42.5774Z" fill="#EA4335"/>
<path d="M42.4846 42.5772H51.9143L51.9996 42.4927H42.4846V42.5772Z" fill="#EA4335"/>
<path d="M42.4614 51.9796H42.4845V51.9565L42.4614 51.9796Z" fill="#34A853"/>
<path d="M21.3008 42.4927V51.9794H42.4621L42.4853 42.4927H21.3008Z" fill="#34A853"/>
<path d="M42.4845 42.5775V42.4927L42.4614 51.9794L42.4845 51.9563V42.5775Z" fill="#34A853"/>
<path d="M12 42.4927V49.0887C12.0853 51.2291 14.4 51.9794 14.4 51.9794H21.3005V42.4927H12Z" fill="#188038"/>
<path d="M21.3005 21.4227H42.485V12.0002H14.6687C14.6687 12.0002 12.1705 12.2572 12 14.9115V42.493H21.3005V21.4227Z" fill="#4285F4"/>
<path d="M28.232 38.2277C27.7473 38.2277 27.28 38.1646 26.8299 38.0383C26.3914 37.9121 25.9876 37.7227 25.6183 37.4702C25.249 37.2062 24.9201 36.8791 24.6317 36.4889C24.3547 36.0987 24.1412 35.6453 23.9912 35.1288L26.1203 34.2853C26.2703 34.8591 26.5241 35.2953 26.8819 35.5937C27.2396 35.8806 27.6896 36.0241 28.232 36.0241C28.4743 36.0241 28.7051 35.9896 28.9244 35.9208C29.1436 35.8404 29.334 35.7314 29.4956 35.5937C29.6571 35.456 29.7841 35.2953 29.8764 35.1116C29.9802 34.9165 30.0322 34.6985 30.0322 34.4574C30.0322 33.9524 29.8418 33.5565 29.461 33.2695C29.0917 32.9826 28.5782 32.8391 27.9204 32.8391H26.8992V30.7904H27.8339C28.0647 30.7904 28.2897 30.7617 28.5089 30.7044C28.7282 30.647 28.9186 30.5609 29.0801 30.4461C29.2532 30.3199 29.3859 30.1649 29.4783 29.9813C29.5821 29.7862 29.634 29.5624 29.634 29.3099C29.634 28.9196 29.4956 28.604 29.2186 28.363C28.9417 28.1105 28.5666 27.9842 28.0935 27.9842C27.5858 27.9842 27.1934 28.122 26.9165 28.3974C26.6511 28.6614 26.4664 28.9598 26.3626 29.2927L24.2855 28.4491C24.3893 28.1621 24.5451 27.8695 24.7528 27.5711C24.9605 27.2612 25.2202 26.9857 25.5317 26.7447C25.8548 26.4922 26.2299 26.2914 26.6568 26.1421C27.0838 25.9815 27.5742 25.9011 28.1281 25.9011C28.6936 25.9011 29.2071 25.9815 29.6687 26.1421C30.1418 26.3028 30.5457 26.5266 30.8803 26.8136C31.215 27.089 31.4746 27.4219 31.6592 27.8121C31.8439 28.1908 31.9362 28.604 31.9362 29.0516C31.9362 29.396 31.89 29.7058 31.7977 29.9813C31.7169 30.2567 31.6073 30.5035 31.4688 30.7216C31.3304 30.9396 31.1688 31.129 30.9842 31.2897C30.8111 31.4389 30.6322 31.5594 30.4476 31.6512V31.789C31.0015 32.007 31.4573 32.3571 31.815 32.8391C32.1843 33.3212 32.3689 33.9295 32.3689 34.664C32.3689 35.1805 32.2708 35.6568 32.0747 36.0929C31.8785 36.5176 31.5958 36.8906 31.2265 37.212C30.8688 37.5333 30.436 37.7801 29.9283 37.9523C29.4206 38.1359 28.8551 38.2277 28.232 38.2277Z" fill="#4285F4"/>
<path d="M36.5025 37.9523V28.8278L34.408 29.7058L33.5772 27.7949L37.0564 26.1766H38.77V37.9523H36.5025Z" fill="#4285F4"/>
</g>
<path fill-rule="evenodd" clip-rule="evenodd" d="M114.333 62C129.797 62 142.333 49.464 142.333 34C142.333 18.536 129.797 6 114.333 6C98.8693 6 86.3333 18.536 86.3333 34C86.3333 39.0218 87.6552 43.7348 89.9702 47.8099L86.3333 62L100.963 58.6076C104.936 60.7709 109.491 62 114.333 62ZM114.333 57.6923C127.418 57.6923 138.026 47.0849 138.026 34C138.026 20.9151 127.418 10.3077 114.333 10.3077C101.248 10.3077 90.6409 20.9151 90.6409 34C90.6409 39.0521 92.2223 43.7349 94.9169 47.5804L92.7948 55.5385L100.893 53.5139C104.712 56.1491 109.342 57.6923 114.333 57.6923Z" fill="#BFC8D0"/>
<path d="M138.333 32C138.333 45.2548 127.588 56 114.333 56C109.278 56 104.587 54.4368 100.719 51.7673L92.5151 53.8182L94.6648 45.7568C91.9351 41.8614 90.3333 37.1177 90.3333 32C90.3333 18.7452 101.078 8 114.333 8C127.588 8 138.333 18.7452 138.333 32Z" fill="url(#paint0_linear_7637_403433)"/>
<path fill-rule="evenodd" clip-rule="evenodd" d="M114.333 60C129.797 60 142.333 47.464 142.333 32C142.333 16.536 129.797 4 114.333 4C98.8693 4 86.3333 16.536 86.3333 32C86.3333 37.0218 87.6552 41.7348 89.9702 45.8099L86.3333 60L100.963 56.6076C104.936 58.7709 109.491 60 114.333 60ZM114.333 55.6923C127.418 55.6923 138.026 45.0849 138.026 32C138.026 18.9151 127.418 8.30769 114.333 8.30769C101.248 8.30769 90.6409 18.9151 90.6409 32C90.6409 37.0521 92.2223 41.7349 94.9169 45.5804L92.7948 53.5385L100.893 51.5139C104.712 54.1491 109.342 55.6923 114.333 55.6923Z" fill="white"/>
<path d="M107.333 19C106.668 17.6629 105.646 17.7812 104.615 17.7812C102.771 17.7812 99.8958 19.9898 99.8958 24.1002C99.8958 27.4688 101.38 31.1563 106.382 36.6725C111.209 41.996 117.552 44.7499 122.818 44.6561C128.083 44.5624 129.167 40.0311 129.167 38.5009C129.167 37.8226 128.746 37.4842 128.456 37.3923C126.661 36.5311 123.352 34.9265 122.599 34.625C121.846 34.3236 121.453 34.7313 121.208 34.9532C120.525 35.6039 119.172 37.5218 118.708 37.9532C118.245 38.3845 117.554 38.1662 117.266 38.0032C116.208 37.5785 113.339 36.3024 111.052 34.0855C108.224 31.3438 108.058 30.4005 107.525 29.5609C107.099 28.8891 107.412 28.477 107.568 28.2969C108.177 27.5938 109.018 26.5082 109.396 25.9688C109.773 25.4293 109.474 24.6103 109.294 24.1002C108.521 21.9063 107.866 20.0697 107.333 19Z" fill="white"/>
<path d="M168.667 23.2C168.667 16.4794 168.667 13.1191 169.975 10.5521C171.125 8.29417 172.961 6.4584 175.219 5.30792C177.786 4 181.146 4 187.867 4H205.467C212.187 4 215.548 4 218.115 5.30792C220.373 6.4584 222.208 8.29417 223.359 10.5521C224.667 13.1191 224.667 16.4794 224.667 23.2V40.8C224.667 47.5206 224.667 50.8809 223.359 53.4479C222.208 55.7058 220.373 57.5416 218.115 58.6921C215.548 60 212.187 60 205.467 60H187.867C181.146 60 177.786 60 175.219 58.6921C172.961 57.5416 171.125 55.7058 169.975 53.4479C168.667 50.8809 168.667 47.5206 168.667 40.8V23.2Z" fill="url(#paint1_linear_7637_403433)"/>
<path d="M213.217 20.0533C210.19 17.4933 206.557 16.2133 202.722 16L202.116 16.64C205.547 17.4933 208.575 19.2 211.401 21.5467C207.97 19.6267 204.135 18.3467 200.098 17.92C198.887 17.7067 197.878 17.7067 196.667 17.7067C195.456 17.7067 194.447 17.7067 193.236 17.92C189.199 18.3467 185.364 19.6267 181.933 21.5467C184.758 19.2 187.786 17.4933 191.217 16.64L190.612 16C186.777 16.2133 183.144 17.4933 180.116 20.0533C176.685 26.88 174.869 34.56 174.667 42.4533C177.694 45.8667 181.933 48 186.373 48C186.373 48 187.786 46.2933 188.795 44.8C186.171 44.16 183.749 42.6667 182.135 40.32C183.547 41.1733 184.96 42.0267 186.373 42.6667C188.19 43.52 190.006 43.9467 191.823 44.3733C193.437 44.5867 195.052 44.8 196.667 44.8C198.281 44.8 199.896 44.5867 201.511 44.3733C203.327 43.9467 205.144 43.52 206.96 42.6667C208.373 42.0267 209.786 41.1733 211.199 40.32C209.584 42.6667 207.162 44.16 204.538 44.8C205.547 46.2933 206.96 48 206.96 48C211.401 48 215.639 45.8667 218.667 42.4533C218.465 34.56 216.648 26.88 213.217 20.0533ZM190.006 38.6133C187.988 38.6133 186.171 36.6933 186.171 34.3467C186.171 32 187.988 30.08 190.006 30.08C192.025 30.08 193.841 32 193.841 34.3467C193.841 36.6933 192.025 38.6133 190.006 38.6133ZM203.327 38.6133C201.309 38.6133 199.492 36.6933 199.492 34.3467C199.492 32 201.309 30.08 203.327 30.08C205.346 30.08 207.162 32 207.162 34.3467C207.162 36.6933 205.346 38.6133 203.327 38.6133Z" fill="white"/>
<path d="M252.817 6.00015C252.287 5.99309 251.781 6.22843 251.435 6.64304C251.089 7.05765 250.938 7.60909 251.023 8.14944L258.64 55.8969C258.836 57.103 259.842 57.9897 261.026 57.9998H297.566C298.455 58.0117 299.218 57.3496 299.36 56.4435L306.977 8.1587C307.062 7.61836 306.911 7.06692 306.565 6.65231C306.219 6.2377 305.713 6.00236 305.183 6.00942L252.817 6.00015ZM284.89 40.5091H273.227L270.069 23.4723H287.716L284.89 40.5091Z" fill="#2684FF"/>
<path fill-rule="evenodd" clip-rule="evenodd" d="M304.555 23.4724H287.716L284.89 40.5092H273.227L259.457 57.3885C259.893 57.7782 260.45 57.9949 261.027 57.9999H297.575C298.464 58.0117 299.227 57.3497 299.37 56.4435L304.555 23.4724Z" fill="url(#paint2_linear_7637_403433)"/>
<defs>
<filter id="filter0_d_7637_403433" x="-2" y="-1" width="68" height="68" filterUnits="userSpaceOnUse" color-interpolation-filters="sRGB">
<feFlood flood-opacity="0" result="BackgroundImageFix"/>
<feColorMatrix in="SourceAlpha" type="matrix" values="0 0 0 0 0 0 0 0 0 0 0 0 0 0 0 0 0 0 127 0" result="hardAlpha"/>
<feOffset dy="1"/>
<feGaussianBlur stdDeviation="1"/>
<feColorMatrix type="matrix" values="0 0 0 0 0.0627451 0 0 0 0 0.0941176 0 0 0 0 0.156863 0 0 0 0.05 0"/>
<feBlend mode="normal" in2="BackgroundImageFix" result="effect1_dropShadow_7637_403433"/>
<feBlend mode="normal" in="SourceGraphic" in2="effect1_dropShadow_7637_403433" result="shape"/>
</filter>
<linearGradient id="paint0_linear_7637_403433" x1="135.333" y1="14" x2="90.3333" y2="56" gradientUnits="userSpaceOnUse">
<stop stop-color="#5BD066"/>
<stop offset="1" stop-color="#27B43E"/>
</linearGradient>
<linearGradient id="paint1_linear_7637_403433" x1="196.667" y1="4" x2="196.667" y2="60" gradientUnits="userSpaceOnUse">
<stop stop-color="#687EC9"/>
<stop offset="1" stop-color="#5971C3"/>
</linearGradient>
<linearGradient id="paint2_linear_7637_403433" x1="308.449" y1="28.2434" x2="288.152" y2="56.1503" gradientUnits="userSpaceOnUse">
<stop offset="0.18" stop-color="#0052CC"/>
<stop offset="1" stop-color="#2684FF"/>
</linearGradient>
</defs>
</svg>
