<svg width="311" height="64" viewBox="0 0 311 64" fill="none" xmlns="http://www.w3.org/2000/svg">
<path fill-rule="evenodd" clip-rule="evenodd" d="M11.432 58.4356L4.55327 49.8663C2.89826 47.8045 2 45.2692 2 42.6597V11.63C2 7.72128 5.12717 4.47794 9.16143 4.2025L41.0643 2.02437C43.382 1.86612 45.6856 2.48218 47.5895 3.76941L58.7985 11.3478C60.8049 12.7044 62 14.922 62 17.2885V52.5663C62 56.3915 58.9251 59.5586 54.9752 59.8017L19.5667 61.9813C16.4147 62.1754 13.368 60.8474 11.432 58.4356Z" fill="white"/>
<path d="M22.4962 27.1574V26.7512C22.4962 25.7214 23.3209 24.8673 24.3839 24.7964L32.1266 24.2794L42.8341 40.047V26.2083L40.078 25.8409V25.6479C40.078 24.6061 40.9216 23.7464 41.9982 23.6912L49.0432 23.3303V24.3442C49.0432 24.8201 48.6893 25.2272 48.2042 25.3092L46.5089 25.596V48.0074L44.3812 48.7391C42.6036 49.3504 40.6248 48.696 39.6072 47.1605L29.2121 31.4744V46.4459L32.4117 47.0583L32.3671 47.355C32.2275 48.2847 31.4249 48.9877 30.454 49.0309L22.4962 49.3851C22.391 48.3855 23.1402 47.4911 24.1738 47.3825L25.2206 47.2726V27.3105L22.4962 27.1574Z" fill="black"/>
<path fill-rule="evenodd" clip-rule="evenodd" d="M41.3498 5.93356L9.44694 8.1117C7.53598 8.24217 6.05469 9.77849 6.05469 11.63V42.6598C6.05469 44.3994 6.65353 46.0896 7.75687 47.4641L14.6356 56.0334C15.7478 57.4189 17.498 58.1818 19.3087 58.0703L54.7173 55.8907C56.5321 55.779 57.9449 54.3239 57.9449 52.5663V17.2885C57.9449 16.2012 57.3958 15.1823 56.4739 14.559L45.2649 6.98059C44.1226 6.20825 42.7404 5.83862 41.3498 5.93356ZM11.0289 12.114C10.5852 11.7855 10.7964 11.1011 11.3538 11.0611L41.5644 8.89422C42.5269 8.82518 43.4834 9.09024 44.2618 9.64176L50.3234 13.9363C50.5535 14.0993 50.4455 14.4513 50.1606 14.4668L18.1677 16.2067C17.1995 16.2594 16.2439 15.9749 15.474 15.405L11.0289 12.114ZM16.6671 21.6614C16.6671 20.6221 17.5068 19.7635 18.5805 19.7051L52.4061 17.8629C53.4525 17.8059 54.3335 18.6107 54.3335 19.6236V50.1705C54.3335 51.208 53.4968 52.0656 52.4252 52.1266L18.8138 54.0391C17.6492 54.1053 16.6671 53.2104 16.6671 52.083V21.6614Z" fill="black"/>
<path d="M135.334 29.9996C138.095 29.9996 140.333 27.7612 140.333 25.0001C140.333 22.2389 138.095 20.0005 135.333 20.0005C132.572 20.0005 130.333 22.2391 130.333 25.0005V29.9996H135.334ZM121.333 29.9996C124.095 29.9996 126.333 27.7611 126.333 24.9996V11.0005C126.333 8.23906 124.095 6.00049 121.333 6.00049C118.572 6.00049 116.333 8.23906 116.333 11.0005V24.9996C116.333 27.7611 118.572 29.9996 121.333 29.9996Z" fill="#2EB67D"/>
<path d="M93.3328 34.0004C90.5716 34.0004 88.3333 36.2388 88.3333 38.9999C88.3333 41.7611 90.5718 43.9995 93.333 43.9995C96.0945 43.9995 98.3333 41.7609 98.3333 38.9995V34.0004H93.3328ZM107.333 34.0004C104.572 34.0004 102.333 36.239 102.333 39.0004V52.9995C102.333 55.7609 104.572 57.9995 107.333 57.9995C110.095 57.9995 112.333 55.7609 112.333 52.9995V39.0004C112.333 36.2389 110.095 34.0004 107.333 34.0004Z" fill="#E01E5A"/>
<path d="M116.334 53.0004C116.334 55.7616 118.572 58 121.333 58C124.095 58 126.333 55.7614 126.333 53.0002C126.333 50.2388 124.094 48 121.333 48L116.334 48L116.334 53.0004ZM116.334 39C116.334 41.7614 118.572 44 121.334 44L135.333 44C138.094 44 140.333 41.7614 140.333 39C140.333 36.2386 138.094 34 135.333 34L121.334 34C118.572 34 116.334 36.2386 116.334 39Z" fill="#ECB22E"/>
<path d="M112.333 10.9996C112.333 8.23839 110.094 6 107.333 6C104.572 6 102.334 8.2386 102.334 10.9998C102.334 13.7612 104.572 16 107.333 16L112.333 16L112.333 10.9996ZM112.333 25C112.333 22.2386 110.094 20 107.333 20L93.3335 20C90.5721 20 88.3335 22.2386 88.3335 25C88.3335 27.7614 90.5721 30 93.3335 30L107.333 30C110.094 30 112.333 27.7614 112.333 25Z" fill="#36C5F0"/>
<g filter="url(#filter0_d_7637_403364)">
<path d="M168.667 23.9111C168.667 16.9416 168.667 13.4568 170.023 10.7948C171.216 8.45321 173.12 6.54945 175.462 5.35636C178.124 4 181.608 4 188.578 4H204.756C211.725 4 215.21 4 217.872 5.35636C220.214 6.54945 222.117 8.45321 223.31 10.7948C224.667 13.4568 224.667 16.9416 224.667 23.9111V40.0889C224.667 47.0584 224.667 50.5432 223.31 53.2052C222.117 55.5468 220.214 57.4505 217.872 58.6436C215.21 60 211.725 60 204.756 60H188.578C181.608 60 178.124 60 175.462 58.6436C173.12 57.4505 171.216 55.5468 170.023 53.2052C168.667 50.5432 168.667 47.0584 168.667 40.0889V23.9111Z" fill="white"/>
<path d="M196.671 24.9019L189.749 12.6864C189.979 12.4524 190.243 12.299 190.508 12.1958C188.466 12.8676 187.53 15.1597 187.53 15.1597L174.885 37.4695C174.707 38.169 174.658 38.8005 174.68 39.3566H188.481L196.671 24.9019Z" fill="#34A853"/>
<path d="M196.671 24.9019L204.86 39.3566H218.662C218.684 38.8005 218.634 38.169 218.457 37.4695L205.812 15.1597C205.812 15.1597 204.872 12.8676 202.834 12.1958C203.096 12.299 203.363 12.4524 203.592 12.6864L196.671 24.9019Z" fill="#FBBC05"/>
<path d="M196.671 24.9024L203.592 12.6869C203.363 12.4529 203.096 12.2995 202.834 12.1963C202.532 12.0982 202.208 12.0327 201.858 12.0151H201.492H191.849H191.484C191.135 12.0302 190.809 12.0957 190.507 12.1963C190.245 12.2995 189.979 12.4529 189.749 12.6869L196.671 24.9024Z" fill="#188038"/>
<path d="M188.483 39.3567L181.641 51.4337C181.641 51.4337 181.413 51.323 181.104 51.0941C182.076 51.8413 183.02 51.9999 183.02 51.9999H209.894C211.376 51.9999 211.685 51.4337 211.685 51.4337C211.69 51.4312 211.693 51.4287 211.698 51.4262L204.86 39.3567H188.483Z" fill="#4285F4"/>
<path d="M188.484 39.3567H174.683C174.752 40.9972 175.464 41.9558 175.464 41.9558L175.982 42.8565C176.02 42.9094 176.042 42.9396 176.042 42.9396L177.171 44.9222L179.707 49.3354C179.781 49.514 179.867 49.6775 179.959 49.8335C179.993 49.8864 180.025 49.9442 180.062 49.9946C180.072 50.0097 180.082 50.0248 180.092 50.0399C180.406 50.4827 180.757 50.8249 181.108 51.0941C181.417 51.3256 181.644 51.4337 181.644 51.4337L188.484 39.3567Z" fill="#1967D2"/>
<path d="M204.861 39.3567H218.663C218.593 40.9972 217.882 41.9558 217.882 41.9558L217.363 42.8565C217.326 42.9094 217.303 42.9396 217.303 42.9396L216.174 44.9222L213.639 49.3354C213.565 49.514 213.478 49.6775 213.387 49.8335C213.352 49.8864 213.32 49.9442 213.283 49.9946C213.273 50.0097 213.263 50.0248 213.253 50.0399C212.939 50.4827 212.588 50.8249 212.238 51.0941C211.929 51.3256 211.701 51.4337 211.701 51.4337L204.861 39.3567Z" fill="#EA4335"/>
</g>
<circle cx="279" cy="32" r="28" fill="#3290E8"/>
<path fill-rule="evenodd" clip-rule="evenodd" d="M291 16H267C264.819 15.9966 263.004 17.8234 263 20V44C263 46.2089 264.791 48 267 48H291C293.181 48.0034 294.996 46.1766 295 44V20C295 17.7911 293.21 16 291 16ZM283.266 21.8667C283.266 21.2782 283.744 20.8 284.333 20.8C284.922 20.8 285.4 21.2782 285.4 21.8667V36.1182C285.4 36.7067 284.922 37.1849 284.333 37.1849C283.769 37.1854 283.268 36.6848 283.267 36.1182L283.266 21.8667ZM277.932 21.3271C277.932 20.7378 278.411 20.2604 279 20.2604C279.589 20.2604 280.068 20.7378 280.068 21.3271V36.7938C280.068 37.3831 279.589 37.8604 279 37.8604C278.435 37.8609 277.935 37.3604 277.933 36.7938L277.932 21.3271ZM272.6 21.8667C272.6 21.2782 273.078 20.8 273.667 20.8C274.256 20.8 274.733 21.2782 274.733 21.8667V36.1182C274.733 36.7067 274.256 37.1849 273.667 37.1849C273.102 37.1854 272.601 36.6848 272.6 36.1182V21.8667ZM267.267 24C267.267 23.4107 267.744 22.9333 268.333 22.9333C268.922 22.9333 269.4 23.4107 269.4 24V33.5938C269.4 34.1831 268.922 34.6604 268.333 34.6604C267.752 34.6614 267.268 34.1742 267.267 33.5938V24ZM290.361 40.2702C290.197 40.4124 286.245 43.7271 279 43.7271C271.755 43.7271 267.805 40.4116 267.639 40.2693C267.198 39.8917 267.146 39.2066 267.524 38.7662C267.892 38.3376 268.594 38.2827 269.024 38.6489C269.086 38.7013 272.615 41.5938 278.999 41.5938C285.463 41.5938 288.938 38.68 288.971 38.6516C289.401 38.2826 290.106 38.3364 290.475 38.7662C290.855 39.2058 290.803 39.8928 290.361 40.2702ZM290.733 33.5947C290.733 34.1831 290.255 34.6613 289.667 34.6613C289.085 34.6623 288.601 34.1751 288.6 33.5947V24C288.6 23.4107 289.078 22.9333 289.666 22.9333C290.255 22.9333 290.733 23.4107 290.733 24V33.5947Z" fill="white"/>
<defs>
<filter id="filter0_d_7637_403364" x="162.667" y="-1" width="68" height="68" filterUnits="userSpaceOnUse" color-interpolation-filters="sRGB">
<feFlood flood-opacity="0" result="BackgroundImageFix"/>
<feColorMatrix in="SourceAlpha" type="matrix" values="0 0 0 0 0 0 0 0 0 0 0 0 0 0 0 0 0 0 127 0" result="hardAlpha"/>
<feOffset dy="1"/>
<feGaussianBlur stdDeviation="1"/>
<feColorMatrix type="matrix" values="0 0 0 0 0.0627451 0 0 0 0 0.0941176 0 0 0 0 0.156863 0 0 0 0.05 0"/>
<feBlend mode="normal" in2="BackgroundImageFix" result="effect1_dropShadow_7637_403364"/>
<feBlend mode="normal" in="SourceGraphic" in2="effect1_dropShadow_7637_403364" result="shape"/>
</filter>
</defs>
</svg>
