<?xml version="1.0" standalone="no"?>
<!DOCTYPE svg PUBLIC "-//W3C//DTD SVG 20010904//EN"
 "http://www.w3.org/TR/2001/REC-SVG-20010904/DTD/svg10.dtd">
<svg version="1.0" xmlns="http://www.w3.org/2000/svg"
 width="260.000000pt" height="260.000000pt" viewBox="0 0 260.000000 260.000000"
 preserveAspectRatio="xMidYMid meet">
<metadata>
Created by potrace 1.14, written by Peter Selinger 2001-2017
</metadata>
<g transform="translate(0.000000,260.000000) scale(0.100000,-0.100000)"
fill="#000000" stroke="none">
<path d="M720 2027 c-151 -119 -269 -299 -322 -492 -32 -117 -32 -345 0 -465
111 -415 477 -699 902 -699 408 0 758 255 885 645 36 109 37 115 40 254 9 306
-103 556 -338 752 -67 56 -109 63 -150 26 -55 -51 -41 -102 49 -176 189 -156
296 -434 259 -677 -56 -376 -381 -651 -759 -644 -341 6 -631 237 -715 569 -25
102 -26 260 0 360 39 150 127 295 237 387 75 63 81 72 81 113 0 39 -13 61 -46
78 -38 21 -66 13 -123 -31z"/>
<path d="M1213 1699 c-102 -19 -212 -98 -267 -192 -73 -124 -66 -303 16 -421
107 -154 310 -214 479 -143 145 60 236 191 244 350 13 254 -219 454 -472 406z"/>
</g>
</svg>
