<svg width="311" height="64" viewBox="0 0 311 64" fill="none" xmlns="http://www.w3.org/2000/svg">
<path d="M59.3295 30.4329L34.415 6.3358L32 4L13.2454 22.1394L4.67052 30.4329C3.77649 31.2987 3.77649 32.7013 4.67052 33.5671L21.8049 50.1394L32 60L50.7546 41.8606L51.045 41.5797L59.3295 33.5671C60.2235 32.7013 60.2235 31.2987 59.3295 30.4329ZM32 40.2788L23.4404 32L32 23.7212L40.5596 32L32 40.2788Z" fill="#2684FF"/>
<path fill-rule="evenodd" clip-rule="evenodd" d="M31.9999 23.7211C26.3957 18.3001 26.3684 9.51989 31.9387 4.06641L13.207 22.1762L23.4021 32.0368L31.9999 23.7211Z" fill="url(#paint0_linear_7637_403398)"/>
<path fill-rule="evenodd" clip-rule="evenodd" d="M40.5825 31.9778L32 40.2787C34.7049 42.8934 36.2247 46.4406 36.2247 50.1393C36.2247 53.8381 34.7049 57.3853 32 60L50.7776 41.8384L40.5825 31.9778Z" fill="url(#paint1_linear_7637_403398)"/>
<circle cx="114.333" cy="32" r="28" fill="#0F287F"/>
<path fill-rule="evenodd" clip-rule="evenodd" d="M104.333 16L94.3333 22L104.333 28L94.3333 34L104.333 40L114.333 34L124.333 40L134.333 34L124.333 28L134.333 22L124.333 16L114.333 22L104.333 16ZM114.333 22L124.333 28L114.333 34L104.333 28L114.333 22Z" fill="#DAF8FE"/>
<path d="M104.333 44L114.333 38L124.333 44L114.333 50L104.333 44Z" fill="#DAF8FE"/>
<path d="M170.411 12.7362C168.667 16.1587 168.667 20.6392 168.667 29.6V34.4C168.667 43.3608 168.667 47.8413 170.411 51.2638C171.945 54.2744 174.392 56.7221 177.403 58.2561C180.825 60 185.306 60 194.267 60H199.067C208.028 60 212.508 60 215.931 58.2561C218.941 56.7221 221.389 54.2744 222.923 51.2638C224.667 47.8413 224.667 43.3608 224.667 34.4V29.6C224.667 20.6392 224.667 16.1587 222.923 12.7362C221.389 9.72556 218.941 7.27787 215.931 5.7439C212.508 4 208.028 4 199.067 4H194.267C185.306 4 180.825 4 177.403 5.7439C174.392 7.27787 171.945 9.72556 170.411 12.7362Z" fill="url(#paint2_linear_7637_403398)"/>
<path d="M169.197 16.5591C168.667 19.5736 168.667 23.5735 168.667 29.5999V34.3999C168.667 43.3608 168.667 47.8412 170.411 51.2638C171.945 54.2744 174.392 56.722 177.403 58.256C180.825 59.9999 185.306 59.9999 194.267 59.9999H199.067C208.028 59.9999 212.508 59.9999 215.931 58.256C218.941 56.722 221.389 54.2744 222.923 51.2638C224.667 47.8412 224.667 43.3608 224.667 34.3999V29.5999C224.667 20.6391 224.667 16.1587 222.923 12.7361C221.442 9.83022 219.11 7.44879 216.243 5.90723L169.197 16.5591Z" fill="url(#paint3_linear_7637_403398)"/>
<path d="M224.087 47.708C223.83 49.0595 223.459 50.2116 222.923 51.2637C221.389 54.2743 218.941 56.722 215.931 58.256C212.61 59.9477 208.295 59.9983 199.859 59.9998H196.784V53.6735L224.087 47.708Z" fill="url(#paint4_linear_7637_403398)"/>
<path d="M199.068 4H194.268C192.524 4 190.951 4 189.521 4.01284V11.941L216.238 5.90451C216.137 5.84991 216.035 5.79637 215.932 5.7439C214.031 4.77576 211.805 4.3451 208.668 4.15351C206.153 4 203.054 4 199.068 4Z" fill="url(#paint5_linear_7637_403398)"/>
<path d="M224.667 34.7467C224.667 40.7579 224.656 44.7202 224.088 47.708L214.592 49.7828V35.6317L224.667 33.2886V34.7467Z" fill="url(#paint6_linear_7637_403398)"/>
<path fill-rule="evenodd" clip-rule="evenodd" d="M194.549 26.7558C194.549 25.4704 195.6 24.9761 197.34 24.9761C199.836 24.9761 202.989 25.7341 205.485 27.0854V19.3403C202.759 18.2527 200.066 17.8242 197.34 17.8242C190.674 17.8242 186.24 21.3177 186.24 27.1513C186.24 36.2476 198.72 34.7975 198.72 38.7195C198.72 40.2355 197.406 40.7299 195.567 40.7299C192.841 40.7299 189.36 39.6094 186.602 38.0933V45.9373C189.656 47.2556 192.743 47.8158 195.567 47.8158C202.398 47.8158 207.094 44.4212 207.094 38.5217C207.061 28.7003 194.549 30.4471 194.549 26.7558Z" fill="white"/>
<path d="M284.91 37.9238C281.111 39.3534 276.854 39.3561 273.054 37.9247C271.623 34.1295 271.622 29.8729 273.052 26.0772C276.85 24.645 281.112 24.6448 284.91 26.0769C286.341 29.8716 286.341 34.1291 284.91 37.9238ZM306.611 27.3334H290.256L301.82 15.7762C300.005 13.2285 297.764 10.9905 295.215 9.17675L283.651 20.734V4.38984C280.564 3.87096 277.399 3.87175 274.312 4.38984V20.734L262.747 9.17675C260.199 10.9893 257.958 13.2304 256.143 15.7762L267.708 27.3334H251.354C250.95 30.5104 250.819 33.4962 251.354 36.6666H267.708L256.143 48.2238C257.962 50.7753 260.194 53.006 262.747 54.8242L274.312 43.2661V59.6111C277.399 60.128 280.563 60.1283 283.65 59.6111V43.2661L295.216 54.8242C297.766 53.0086 300.003 50.7725 301.82 48.2238L290.254 36.6666H306.611C307.13 33.5848 307.13 30.4153 306.611 27.3334Z" fill="#FF4A00"/>
<defs>
<linearGradient id="paint0_linear_7637_403398" x1="30.4714" y1="15.3462" x2="16.1929" y2="21.5805" gradientUnits="userSpaceOnUse">
<stop offset="0.18" stop-color="#0052CC"/>
<stop offset="1" stop-color="#2684FF"/>
</linearGradient>
<linearGradient id="paint1_linear_7637_403398" x1="33.6355" y1="48.5575" x2="47.8883" y2="42.3675" gradientUnits="userSpaceOnUse">
<stop offset="0.18" stop-color="#0052CC"/>
<stop offset="1" stop-color="#2684FF"/>
</linearGradient>
<linearGradient id="paint2_linear_7637_403398" x1="168.667" y1="4" x2="187.06" y2="17.0042" gradientUnits="userSpaceOnUse">
<stop stop-color="#392993"/>
<stop offset="1" stop-color="#4B47B9"/>
</linearGradient>
<linearGradient id="paint3_linear_7637_403398" x1="170.776" y1="17.1488" x2="211.38" y2="50.6419" gradientUnits="userSpaceOnUse">
<stop stop-color="#594BB9"/>
<stop offset="1" stop-color="#60A8F2"/>
</linearGradient>
<linearGradient id="paint4_linear_7637_403398" x1="196.784" y1="53.9079" x2="224.667" y2="60" gradientUnits="userSpaceOnUse">
<stop stop-color="#61A2EF"/>
<stop offset="1" stop-color="#58E6FD"/>
</linearGradient>
<linearGradient id="paint5_linear_7637_403398" x1="189.521" y1="7.98326" x2="224.668" y2="4" gradientUnits="userSpaceOnUse">
<stop stop-color="#534EBE"/>
<stop offset="1" stop-color="#6875E2"/>
</linearGradient>
<linearGradient id="paint6_linear_7637_403398" x1="214.592" y1="35.7488" x2="224.667" y2="47.8158" gradientUnits="userSpaceOnUse">
<stop stop-color="#71A5F3"/>
<stop offset="1" stop-color="#6CC3FA"/>
</linearGradient>
</defs>
</svg>
