<svg width="311" height="64" viewBox="0 0 311 64" fill="none" xmlns="http://www.w3.org/2000/svg">
<path fill-rule="evenodd" clip-rule="evenodd" d="M32 32C32 27.0294 36.0294 23 41 23C45.9706 23 50 27.0294 50 32C50 36.9706 45.9706 41 41 41C36.0294 41 32 36.9706 32 32Z" fill="#1ABCFE"/>
<path fill-rule="evenodd" clip-rule="evenodd" d="M14 50C14 45.0294 18.0294 41 23 41H32V50C32 54.9706 27.9706 59 23 59C18.0294 59 14 54.9706 14 50Z" fill="#0ACF83"/>
<path fill-rule="evenodd" clip-rule="evenodd" d="M32 5V23H41C45.9706 23 50 18.9706 50 14C50 9.02944 45.9706 5 41 5H32Z" fill="#FF7262"/>
<path fill-rule="evenodd" clip-rule="evenodd" d="M14 14C14 18.9706 18.0294 23 23 23H32V5H23C18.0294 5 14 9.02944 14 14Z" fill="#F24E1E"/>
<path fill-rule="evenodd" clip-rule="evenodd" d="M14 32C14 36.9706 18.0294 41 23 41H32V23H23C18.0294 23 14 27.0294 14 32Z" fill="#A259FF"/>
<path fill-rule="evenodd" clip-rule="evenodd" d="M92.0739 44.6433C91.5774 45.4858 91.0199 46.4634 90.5464 47.2424C90.1225 47.9878 90.3501 48.9491 91.0581 49.4044L100.987 55.7631C101.335 55.987 101.756 56.0559 102.153 55.9543C102.551 55.8527 102.893 55.589 103.102 55.2226C103.5 54.5311 104.011 53.6329 104.569 52.6712C108.502 45.915 112.458 46.7416 119.592 50.2866L129.436 55.159C129.809 55.3437 130.238 55.3634 130.625 55.2137C131.012 55.0639 131.324 54.7575 131.491 54.3642L136.218 43.2364C136.552 42.4416 136.213 41.5149 135.455 41.1539C133.377 40.1365 129.245 38.1097 125.526 36.2418C112.145 29.4777 100.773 29.9148 92.0739 44.6433Z" fill="url(#paint0_linear_7637_403416)"/>
<path fill-rule="evenodd" clip-rule="evenodd" d="M136.593 19.391C137.09 18.5485 137.647 17.5708 138.121 16.7919C138.545 16.0465 138.317 15.0852 137.609 14.6299L127.68 8.27119C127.329 8.0249 126.895 7.94153 126.482 8.04099C126.07 8.14046 125.715 8.41382 125.504 8.79578C125.106 9.48729 124.595 10.3855 124.037 11.3472C120.104 18.1034 116.148 17.2767 109.014 13.7317L99.2002 8.88321C98.8274 8.69852 98.3986 8.6788 98.0115 8.82854C97.6244 8.97829 97.3121 9.28474 97.1457 9.67806L92.4182 20.8058C92.0841 21.6006 92.424 22.5273 93.1819 22.8883C95.2593 23.9057 99.3912 25.9326 103.111 27.8004C116.522 34.5566 127.894 34.1035 136.593 19.391Z" fill="url(#paint1_linear_7637_403416)"/>
<path d="M196.667 4C181.223 4 168.667 16.5562 168.667 32C168.667 47.4437 181.223 60 196.667 60C212.11 60 224.667 47.4437 224.667 32C224.667 16.5562 212.11 4 196.667 4Z" fill="#FDDD4C"/>
<path d="M184.404 39.3003C183.792 38.3734 185.332 36.9705 184.706 35.7927C184.345 35.1133 183.755 34.69 183.046 34.6011C182.366 34.5158 181.665 34.7648 181.218 35.2515C180.513 36.0188 180.403 37.0634 180.54 37.433C180.59 37.5685 180.668 37.6055 180.724 37.6134C181.108 37.6639 181.325 36.6782 181.457 36.4729C181.824 35.907 182.656 35.7358 183.231 36.1077C184.321 36.8128 183.376 37.9524 183.458 38.9149C183.537 39.8521 184.121 40.2287 184.645 40.2683C185.155 40.2877 185.512 40.0043 185.602 39.7975C185.818 39.3038 184.908 40.063 184.404 39.3003Z" fill="black"/>
<path d="M207.182 30.7917C206.896 30.7521 206.584 30.7531 206.259 30.7917C206.012 30.4802 205.791 29.9759 205.666 29.3872C205.444 28.34 205.467 27.5814 206.087 27.4829C206.706 27.3843 207.006 28.0179 207.228 29.0651C207.376 29.7691 207.348 30.4159 207.182 30.7917Z" fill="black"/>
<path d="M200.396 31.4147C200.42 31.6519 200.429 31.8918 200.422 32.1127C201.022 32.1479 201.446 32.4327 201.559 32.6133C201.617 32.7066 201.594 32.7673 201.575 32.7955C201.513 32.892 201.38 32.8771 201.102 32.8459C200.858 32.8185 200.596 32.7945 200.324 32.807C200.176 33.2616 199.736 33.3041 199.428 32.9679C199.212 33.0337 198.788 33.3042 198.662 33.0102C198.661 32.8643 198.813 32.6523 199.09 32.465C198.901 32.1053 198.775 31.7201 198.7 31.3214C198.308 31.3919 197.956 31.5016 197.68 31.5876C197.55 31.628 197.037 31.8597 196.977 31.5986C196.937 31.4182 197.218 31.1207 197.515 30.906C197.846 30.6705 198.214 30.5031 198.596 30.4065C198.588 29.8385 198.733 29.4423 199.145 29.3766C199.657 29.2952 199.974 29.6892 200.194 30.4187C200.812 30.5905 201.429 31.0165 201.702 31.4569C201.808 31.6276 201.829 31.7596 201.76 31.8291C201.589 32.0068 200.639 31.4918 200.396 31.4147Z" fill="black"/>
<path d="M204.462 33.9676C204.854 34.1577 205.286 34.0829 205.427 33.8004C205.568 33.5179 205.363 33.1351 204.971 32.945C204.579 32.7549 204.147 32.8297 204.007 33.1122C203.866 33.3947 204.07 33.7775 204.462 33.9676Z" fill="black"/>
<path d="M206.393 32.5648C206.4 32.1328 206.665 31.7878 206.983 31.7931C207.302 31.7992 207.554 32.153 207.547 32.5842C207.54 33.0154 207.275 33.3604 206.957 33.3551C206.638 33.3498 206.386 32.996 206.393 32.5648Z" fill="black"/>
<path fill-rule="evenodd" clip-rule="evenodd" d="M215.024 37.8563C215.03 37.8783 215.021 37.8473 215.024 37.8563C215.663 37.8563 216.667 38.5814 216.667 40.3335C216.667 42.0768 215.934 44.0515 215.761 44.4897C213.121 50.7342 206.821 54.2102 199.316 53.9902C192.32 53.7851 186.353 50.141 183.742 44.2002C182.163 44.202 180.535 43.5164 179.298 42.434C177.994 41.2936 177.189 39.8178 177.033 38.2787C176.91 37.0801 177.059 35.9652 177.44 34.9928L175.973 33.7661C169.262 28.1728 190.253 5.1433 196.966 10.9231C196.999 10.9522 199.25 13.131 199.255 13.1363C202.492 11.7797 211.164 9.1968 211.174 15.2096C211.178 17.2063 209.889 19.5348 207.823 21.6476C210.21 23.8329 209.581 26.937 209.961 29.785L210.79 30.012C212.371 30.4494 213.495 31.0328 214.045 31.603C214.595 32.1724 214.868 32.7242 214.967 33.371C215.059 33.8928 215.047 34.8141 214.35 35.8446C214.601 36.5094 214.83 37.1721 215.024 37.8563ZM183.623 42.5801C183.858 42.5854 184.091 42.5704 184.319 42.5317C186.771 42.119 187.413 39.4896 187.009 36.9077C186.553 33.9922 184.555 32.9644 183.199 32.8914C182.822 32.872 182.472 32.9054 182.183 32.9626C179.762 33.444 178.396 35.4768 178.665 38.1168C178.908 40.506 181.356 42.5203 183.623 42.5801ZM178.142 33.679C178.954 32.5147 180.281 31.6726 181.788 31.383C183.705 26.3019 186.908 21.6204 191.146 18.3987C194.291 15.8089 197.683 13.9512 197.683 13.9512C197.683 13.9512 195.857 11.8603 195.305 11.7063C191.911 10.8017 184.581 15.7913 179.901 22.3842C178.007 25.0515 175.296 29.7753 176.592 32.205C176.752 32.5059 177.657 33.2794 178.142 33.679ZM205.658 41.4132C205.663 41.4678 205.629 41.5241 205.58 41.5444C205.58 41.5444 202.853 42.7966 198.521 41.474C198.677 42.7724 200.252 43.2645 201.352 43.4425C206.719 44.3542 211.738 41.3244 212.867 40.5614C213.061 40.4304 212.865 40.7672 212.83 40.8166C211.447 42.5775 207.729 44.6164 202.893 44.6155C200.784 44.6147 198.675 43.8816 197.902 42.7544C196.701 41.0058 197.842 38.4529 199.843 38.7187C203.226 39.0958 206.695 38.8125 209.826 37.3776C212.557 36.1262 213.588 34.7499 213.433 33.635C213.193 31.907 210.631 31.6368 209.336 31.2167C208.773 31.0328 208.494 30.8858 208.431 29.8395C208.403 29.3828 208.323 27.7891 208.294 27.13C208.242 25.9763 208.101 24.3985 207.11 23.7473C206.851 23.5775 206.564 23.4956 206.262 23.4798C206.021 23.4683 205.878 23.5014 205.801 23.5192C205.784 23.5232 205.77 23.5264 205.759 23.5282C205.224 23.618 204.896 23.8889 204.509 24.2082C204.487 24.2266 204.464 24.2452 204.442 24.2639C203.205 25.2811 202.161 25.4475 201 25.3982C200.638 25.3831 200.265 25.3469 199.872 25.3088C199.51 25.2737 199.131 25.237 198.727 25.2134L198.234 25.1852C196.289 25.0867 194.203 26.7446 193.856 29.0994C193.469 31.7279 194.938 33.338 195.893 34.385C196.129 34.6437 196.334 34.8681 196.472 35.0649C196.56 35.1837 196.662 35.3509 196.662 35.5102C196.662 35.7003 196.538 35.8508 196.416 35.9793C194.431 37.9936 193.796 41.1941 194.544 43.8614C194.638 44.194 194.756 44.5126 194.896 44.8171C196.651 48.8642 202.094 50.7491 207.411 49.0349C211.138 47.8334 214.43 44.93 215.1 40.9248C215.26 39.8812 215.026 39.4781 214.706 39.2836C214.368 39.0786 213.964 39.1499 213.964 39.1499C213.964 39.1499 213.779 37.9029 213.257 36.7695C211.706 37.9769 209.711 38.8252 208.192 39.2555C205.758 39.9447 203.129 40.2131 200.614 39.8881C199.594 39.7562 198.909 39.6677 198.615 40.6098C201.97 41.8224 205.52 41.3032 205.52 41.3032C205.589 41.2962 205.651 41.3455 205.658 41.4132ZM195.979 17.8812C194.144 18.8079 192.095 20.4579 190.432 22.356C190.373 22.4238 190.46 22.5171 190.533 22.4652C191.97 21.4329 193.94 20.4737 196.521 19.8524C199.412 19.1564 202.195 19.4485 203.895 19.8331C203.981 19.8524 204.034 19.7072 203.958 19.665C202.835 19.0428 201.111 18.6204 199.888 18.6116C199.828 18.6108 199.794 18.5421 199.83 18.4946C200.041 18.2139 200.331 17.9367 200.596 17.736C200.655 17.6903 200.619 17.5961 200.544 17.6005C199.022 17.6928 195.547 19.2774 195.56 19.2197C195.649 18.7973 195.93 18.2394 196.075 17.9789C196.11 17.9173 196.042 17.8496 195.979 17.8812Z" fill="black"/>
<path d="M281 10L281 41.4286L307 10H281Z" fill="#07363D"/>
<path d="M264 24C271.112 24 277 16.8316 277 10H251C251 16.8316 256.888 24 264 24Z" fill="#07363D"/>
<path d="M281 54C281 47.1684 286.888 40 294 40C301.112 40 307 47.1684 307 54H281Z" fill="#07363D"/>
<path d="M277 54V22.5714L251 54H277Z" fill="#07363D"/>
<defs>
<linearGradient id="paint0_linear_7637_403416" x1="135.951" y1="59.0458" x2="124.066" y2="32.8472" gradientUnits="userSpaceOnUse">
<stop offset="0.18" stop-color="#0052CC"/>
<stop offset="1" stop-color="#2684FF"/>
</linearGradient>
<linearGradient id="paint1_linear_7637_403416" x1="92.716" y1="4.98054" x2="104.619" y2="31.1911" gradientUnits="userSpaceOnUse">
<stop offset="0.18" stop-color="#0052CC"/>
<stop offset="1" stop-color="#2684FF"/>
</linearGradient>
</defs>
</svg>
